<mxfile host="app.diagrams.net" modified="2023-09-27T06:58:01.726Z" agent="Mozilla/5.0 (Windows NT 10.0; Win64; x64) AppleWebKit/537.36 (KHTML, like Gecko) Chrome/117.0.0.0 Safari/537.36" etag="iULcEFj4HR9b-bIaCk-5" version="21.6.8" type="github">
  <diagram name="第 1 页" id="-J7cpiFGm7QB5_p0cpte">
    <mxGraphModel dx="1434" dy="750" grid="1" gridSize="10" guides="1" tooltips="1" connect="1" arrows="1" fold="1" page="1" pageScale="1" pageWidth="827" pageHeight="1169" math="0" shadow="0">
      <root>
        <mxCell id="0" />
        <mxCell id="1" parent="0" />
        <mxCell id="oQ876y_iUV-qm9Lz1hwJ-3" style="edgeStyle=entityRelationEdgeStyle;rounded=0;orthogonalLoop=1;jettySize=auto;html=1;startArrow=none;endArrow=none;segment=10;curved=1;sourcePerimeterSpacing=0;targetPerimeterSpacing=0;entryX=0.5;entryY=1;entryDx=0;entryDy=0;" edge="1" parent="1" source="oQ876y_iUV-qm9Lz1hwJ-1" target="oQ876y_iUV-qm9Lz1hwJ-12">
          <mxGeometry relative="1" as="geometry">
            <mxPoint x="230" y="650" as="targetPoint" />
            <Array as="points">
              <mxPoint x="370" y="670" />
              <mxPoint x="370" y="720" />
              <mxPoint x="260" y="700" />
              <mxPoint x="360" y="740" />
            </Array>
          </mxGeometry>
        </mxCell>
        <mxCell id="oQ876y_iUV-qm9Lz1hwJ-4" style="edgeStyle=entityRelationEdgeStyle;rounded=0;orthogonalLoop=1;jettySize=auto;html=1;startArrow=none;endArrow=none;segment=10;curved=1;sourcePerimeterSpacing=0;targetPerimeterSpacing=0;" edge="1" parent="1" source="oQ876y_iUV-qm9Lz1hwJ-1">
          <mxGeometry relative="1" as="geometry">
            <mxPoint x="510" y="795" as="targetPoint" />
          </mxGeometry>
        </mxCell>
        <mxCell id="oQ876y_iUV-qm9Lz1hwJ-5" style="edgeStyle=entityRelationEdgeStyle;rounded=0;orthogonalLoop=1;jettySize=auto;html=1;startArrow=none;endArrow=none;segment=10;curved=1;sourcePerimeterSpacing=0;targetPerimeterSpacing=0;" edge="1" parent="1" source="oQ876y_iUV-qm9Lz1hwJ-1">
          <mxGeometry relative="1" as="geometry">
            <mxPoint x="380" y="950" as="targetPoint" />
          </mxGeometry>
        </mxCell>
        <mxCell id="oQ876y_iUV-qm9Lz1hwJ-6" style="edgeStyle=entityRelationEdgeStyle;rounded=0;orthogonalLoop=1;jettySize=auto;html=1;startArrow=none;endArrow=none;segment=10;curved=1;sourcePerimeterSpacing=0;targetPerimeterSpacing=0;entryX=0.75;entryY=1;entryDx=0;entryDy=0;" edge="1" parent="1" source="oQ876y_iUV-qm9Lz1hwJ-1" target="oQ876y_iUV-qm9Lz1hwJ-12">
          <mxGeometry relative="1" as="geometry">
            <mxPoint x="440" y="730" as="targetPoint" />
          </mxGeometry>
        </mxCell>
        <mxCell id="oQ876y_iUV-qm9Lz1hwJ-7" style="edgeStyle=entityRelationEdgeStyle;rounded=0;orthogonalLoop=1;jettySize=auto;html=1;startArrow=none;endArrow=none;segment=10;curved=1;sourcePerimeterSpacing=0;targetPerimeterSpacing=0;" edge="1" parent="1" source="oQ876y_iUV-qm9Lz1hwJ-1">
          <mxGeometry relative="1" as="geometry">
            <mxPoint x="490" y="880" as="targetPoint" />
          </mxGeometry>
        </mxCell>
        <mxCell id="oQ876y_iUV-qm9Lz1hwJ-8" style="edgeStyle=entityRelationEdgeStyle;rounded=0;orthogonalLoop=1;jettySize=auto;html=1;startArrow=none;endArrow=none;segment=10;curved=1;sourcePerimeterSpacing=0;targetPerimeterSpacing=0;" edge="1" parent="1" source="oQ876y_iUV-qm9Lz1hwJ-1">
          <mxGeometry relative="1" as="geometry">
            <mxPoint x="530" y="990" as="targetPoint" />
          </mxGeometry>
        </mxCell>
        <mxCell id="oQ876y_iUV-qm9Lz1hwJ-13" style="edgeStyle=entityRelationEdgeStyle;rounded=0;orthogonalLoop=1;jettySize=auto;html=1;startArrow=none;endArrow=none;segment=10;curved=1;sourcePerimeterSpacing=0;targetPerimeterSpacing=0;entryX=0;entryY=0.5;entryDx=0;entryDy=0;" edge="1" parent="1" source="oQ876y_iUV-qm9Lz1hwJ-1" target="oQ876y_iUV-qm9Lz1hwJ-12">
          <mxGeometry relative="1" as="geometry" />
        </mxCell>
        <mxCell id="oQ876y_iUV-qm9Lz1hwJ-1" value="Branch" style="whiteSpace=wrap;html=1;shape=partialRectangle;top=0;left=0;bottom=1;right=0;points=[[0,1],[1,1]];fillColor=none;align=center;verticalAlign=bottom;routingCenterY=0.5;snapToPoint=1;recursiveResize=0;autosize=1;treeFolding=1;treeMoving=1;newEdgeStyle={&quot;edgeStyle&quot;:&quot;entityRelationEdgeStyle&quot;,&quot;startArrow&quot;:&quot;none&quot;,&quot;endArrow&quot;:&quot;none&quot;,&quot;segment&quot;:10,&quot;curved&quot;:1,&quot;sourcePerimeterSpacing&quot;:0,&quot;targetPerimeterSpacing&quot;:0};direction=east;" vertex="1" parent="1">
          <mxGeometry x="50" y="850" width="80" height="30" as="geometry" />
        </mxCell>
        <mxCell id="oQ876y_iUV-qm9Lz1hwJ-2" value="" style="edgeStyle=entityRelationEdgeStyle;startArrow=none;endArrow=none;segment=10;curved=1;sourcePerimeterSpacing=0;targetPerimeterSpacing=0;rounded=0;" edge="1" target="oQ876y_iUV-qm9Lz1hwJ-1" parent="1">
          <mxGeometry relative="1" as="geometry">
            <mxPoint x="230" y="830" as="sourcePoint" />
          </mxGeometry>
        </mxCell>
        <mxCell id="oQ876y_iUV-qm9Lz1hwJ-11" style="edgeStyle=entityRelationEdgeStyle;rounded=0;orthogonalLoop=1;jettySize=auto;html=1;startArrow=none;endArrow=none;segment=10;curved=1;sourcePerimeterSpacing=0;targetPerimeterSpacing=0;" edge="1" parent="1">
          <mxGeometry relative="1" as="geometry">
            <mxPoint x="170" y="860" as="targetPoint" />
            <mxPoint x="230" y="1023" as="sourcePoint" />
            <Array as="points">
              <mxPoint x="160" y="850" />
            </Array>
          </mxGeometry>
        </mxCell>
        <mxCell id="oQ876y_iUV-qm9Lz1hwJ-9" value="Sub Topic" style="whiteSpace=wrap;html=1;rounded=1;arcSize=50;align=center;verticalAlign=middle;strokeWidth=1;autosize=1;spacing=4;treeFolding=1;treeMoving=1;newEdgeStyle={&quot;edgeStyle&quot;:&quot;entityRelationEdgeStyle&quot;,&quot;startArrow&quot;:&quot;none&quot;,&quot;endArrow&quot;:&quot;none&quot;,&quot;segment&quot;:10,&quot;curved&quot;:1,&quot;sourcePerimeterSpacing&quot;:0,&quot;targetPerimeterSpacing&quot;:0};" vertex="1" parent="1">
          <mxGeometry x="140" y="1018" width="100" height="30" as="geometry" />
        </mxCell>
        <mxCell id="oQ876y_iUV-qm9Lz1hwJ-10" value="" style="edgeStyle=entityRelationEdgeStyle;startArrow=none;endArrow=none;segment=10;curved=1;sourcePerimeterSpacing=0;targetPerimeterSpacing=0;rounded=0;" edge="1" target="oQ876y_iUV-qm9Lz1hwJ-9" parent="1">
          <mxGeometry relative="1" as="geometry">
            <mxPoint x="110" y="1060" as="sourcePoint" />
          </mxGeometry>
        </mxCell>
        <mxCell id="oQ876y_iUV-qm9Lz1hwJ-12" value="" style="rounded=0;whiteSpace=wrap;html=1;" vertex="1" parent="1">
          <mxGeometry x="440" y="610" width="120" height="60" as="geometry" />
        </mxCell>
      </root>
    </mxGraphModel>
  </diagram>
</mxfile>
